<mxfile host="app.diagrams.net" modified="2022-10-21T04:17:54.420Z" agent="5.0 (Macintosh; Intel Mac OS X 10_15_7) AppleWebKit/537.36 (KHTML, like Gecko) Chrome/105.0.0.0 Safari/537.36" etag="9ZZagaRbEW2M3-EQCB5j" version="20.4.2" type="github">
  <diagram id="waryDIt4g6T6msKOkF0v" name="第 1 页">
    <mxGraphModel dx="1372" dy="769" grid="1" gridSize="10" guides="1" tooltips="1" connect="1" arrows="1" fold="1" page="1" pageScale="1" pageWidth="827" pageHeight="1169" math="0" shadow="0">
      <root>
        <mxCell id="0" />
        <mxCell id="1" parent="0" />
        <mxCell id="DzsUAQ3gHwcwVIxKzZvo-15" style="edgeStyle=none;rounded=0;sketch=1;hachureGap=4;jiggle=2;orthogonalLoop=1;jettySize=auto;html=1;exitX=1;exitY=0.5;exitDx=0;exitDy=0;entryX=0;entryY=0.5;entryDx=0;entryDy=0;fontFamily=Architects Daughter;fontSource=https%3A%2F%2Ffonts.googleapis.com%2Fcss%3Ffamily%3DArchitects%2BDaughter;fontSize=16;" edge="1" parent="1" source="DzsUAQ3gHwcwVIxKzZvo-3" target="DzsUAQ3gHwcwVIxKzZvo-14">
          <mxGeometry relative="1" as="geometry" />
        </mxCell>
        <mxCell id="DzsUAQ3gHwcwVIxKzZvo-3" value="Cluster-Manager" style="label;whiteSpace=wrap;html=1;image=img/clipart/Gear_128x128.png;sketch=1;hachureGap=4;jiggle=2;fontFamily=Architects Daughter;fontSource=https%3A%2F%2Ffonts.googleapis.com%2Fcss%3Ffamily%3DArchitects%2BDaughter;fontSize=20;align=center;" vertex="1" parent="1">
          <mxGeometry x="490" y="590" width="240" height="60" as="geometry" />
        </mxCell>
        <mxCell id="DzsUAQ3gHwcwVIxKzZvo-28" style="edgeStyle=none;rounded=0;sketch=1;hachureGap=4;jiggle=2;orthogonalLoop=1;jettySize=auto;html=1;exitX=0.5;exitY=1;exitDx=0;exitDy=0;entryX=0.5;entryY=0;entryDx=0;entryDy=0;fontFamily=Architects Daughter;fontSource=https%3A%2F%2Ffonts.googleapis.com%2Fcss%3Ffamily%3DArchitects%2BDaughter;fontSize=16;startArrow=classic;startFill=1;" edge="1" parent="1" source="DzsUAQ3gHwcwVIxKzZvo-4" target="DzsUAQ3gHwcwVIxKzZvo-14">
          <mxGeometry relative="1" as="geometry" />
        </mxCell>
        <mxCell id="DzsUAQ3gHwcwVIxKzZvo-4" value="Scheduler" style="label;whiteSpace=wrap;html=1;image=img/clipart/Gear_128x128.png;sketch=1;hachureGap=4;jiggle=2;fontFamily=Architects Daughter;fontSource=https%3A%2F%2Ffonts.googleapis.com%2Fcss%3Ffamily%3DArchitects%2BDaughter;fontSize=20;align=center;" vertex="1" parent="1">
          <mxGeometry x="540" y="380" width="250" height="70" as="geometry" />
        </mxCell>
        <mxCell id="DzsUAQ3gHwcwVIxKzZvo-10" style="rounded=0;sketch=1;hachureGap=4;jiggle=2;orthogonalLoop=1;jettySize=auto;html=1;exitX=0.5;exitY=0;exitDx=0;exitDy=0;fontFamily=Architects Daughter;fontSource=https%3A%2F%2Ffonts.googleapis.com%2Fcss%3Ffamily%3DArchitects%2BDaughter;fontSize=16;" edge="1" parent="1" source="DzsUAQ3gHwcwVIxKzZvo-9" target="DzsUAQ3gHwcwVIxKzZvo-3">
          <mxGeometry relative="1" as="geometry" />
        </mxCell>
        <mxCell id="DzsUAQ3gHwcwVIxKzZvo-19" style="edgeStyle=none;rounded=0;sketch=1;hachureGap=4;jiggle=2;orthogonalLoop=1;jettySize=auto;html=1;exitX=1;exitY=0.5;exitDx=0;exitDy=0;entryX=0;entryY=0.5;entryDx=0;entryDy=0;fontFamily=Architects Daughter;fontSource=https%3A%2F%2Ffonts.googleapis.com%2Fcss%3Ffamily%3DArchitects%2BDaughter;fontSize=16;startArrow=classic;startFill=1;" edge="1" parent="1" source="DzsUAQ3gHwcwVIxKzZvo-9" target="DzsUAQ3gHwcwVIxKzZvo-17">
          <mxGeometry relative="1" as="geometry" />
        </mxCell>
        <mxCell id="DzsUAQ3gHwcwVIxKzZvo-9" value="PoP-CDNTi" style="rounded=1;whiteSpace=wrap;html=1;sketch=1;hachureGap=4;jiggle=2;fontFamily=Architects Daughter;fontSource=https%3A%2F%2Ffonts.googleapis.com%2Fcss%3Ffamily%3DArchitects%2BDaughter;fontSize=20;" vertex="1" parent="1">
          <mxGeometry x="320" y="830" width="120" height="60" as="geometry" />
        </mxCell>
        <mxCell id="DzsUAQ3gHwcwVIxKzZvo-12" value="1" style="ellipse;whiteSpace=wrap;html=1;sketch=1;hachureGap=4;jiggle=2;fontFamily=Architects Daughter;fontSource=https%3A%2F%2Ffonts.googleapis.com%2Fcss%3Ffamily%3DArchitects%2BDaughter;fontSize=20;fillColor=#ffe6cc;strokeColor=#d79b00;fillStyle=solid;" vertex="1" parent="1">
          <mxGeometry x="455" y="740" width="30" height="30" as="geometry" />
        </mxCell>
        <mxCell id="DzsUAQ3gHwcwVIxKzZvo-14" value="CloudCache" style="label;whiteSpace=wrap;html=1;image=img/clipart/Gear_128x128.png;sketch=1;hachureGap=4;jiggle=2;fontFamily=Architects Daughter;fontSource=https%3A%2F%2Ffonts.googleapis.com%2Fcss%3Ffamily%3DArchitects%2BDaughter;fontSize=20;align=center;" vertex="1" parent="1">
          <mxGeometry x="850" y="585" width="250" height="70" as="geometry" />
        </mxCell>
        <mxCell id="DzsUAQ3gHwcwVIxKzZvo-16" value="2" style="ellipse;whiteSpace=wrap;html=1;sketch=1;hachureGap=4;jiggle=2;fontFamily=Architects Daughter;fontSource=https://fonts.googleapis.com/css?family=Architects+Daughter;fontSize=20;fillColor=#ffe6cc;strokeColor=#d79b00;fillStyle=solid;" vertex="1" parent="1">
          <mxGeometry x="780" y="600" width="30" height="30" as="geometry" />
        </mxCell>
        <mxCell id="DzsUAQ3gHwcwVIxKzZvo-17" value="PoP-CDNTi" style="rounded=1;whiteSpace=wrap;html=1;sketch=1;hachureGap=4;jiggle=2;fontFamily=Architects Daughter;fontSource=https%3A%2F%2Ffonts.googleapis.com%2Fcss%3Ffamily%3DArchitects%2BDaughter;fontSize=20;" vertex="1" parent="1">
          <mxGeometry x="550" y="830" width="120" height="60" as="geometry" />
        </mxCell>
        <mxCell id="DzsUAQ3gHwcwVIxKzZvo-18" value="PoP-CDNTi" style="rounded=1;whiteSpace=wrap;html=1;sketch=1;hachureGap=4;jiggle=2;fontFamily=Architects Daughter;fontSource=https%3A%2F%2Ffonts.googleapis.com%2Fcss%3Ffamily%3DArchitects%2BDaughter;fontSize=20;" vertex="1" parent="1">
          <mxGeometry x="780" y="820" width="120" height="60" as="geometry" />
        </mxCell>
        <mxCell id="DzsUAQ3gHwcwVIxKzZvo-20" value="8" style="ellipse;whiteSpace=wrap;html=1;sketch=1;hachureGap=4;jiggle=2;fontFamily=Architects Daughter;fontSource=https://fonts.googleapis.com/css?family=Architects+Daughter;fontSize=20;fillColor=#dae8fc;strokeColor=#6c8ebf;fillStyle=solid;" vertex="1" parent="1">
          <mxGeometry x="485" y="850" width="30" height="30" as="geometry" />
        </mxCell>
        <mxCell id="DzsUAQ3gHwcwVIxKzZvo-21" value="P2P-SDK" style="ellipse;whiteSpace=wrap;html=1;sketch=1;hachureGap=4;jiggle=2;fillStyle=solid;fontFamily=Architects Daughter;fontSource=https%3A%2F%2Ffonts.googleapis.com%2Fcss%3Ffamily%3DArchitects%2BDaughter;fontSize=20;" vertex="1" parent="1">
          <mxGeometry x="20" y="490" width="110" height="80" as="geometry" />
        </mxCell>
        <mxCell id="DzsUAQ3gHwcwVIxKzZvo-26" style="edgeStyle=none;rounded=0;sketch=1;hachureGap=4;jiggle=2;orthogonalLoop=1;jettySize=auto;html=1;exitX=0.945;exitY=0.238;exitDx=0;exitDy=0;entryX=0.5;entryY=1;entryDx=0;entryDy=0;fontFamily=Architects Daughter;fontSource=https%3A%2F%2Ffonts.googleapis.com%2Fcss%3Ffamily%3DArchitects%2BDaughter;fontSize=16;startArrow=classic;startFill=1;exitPerimeter=0;" edge="1" parent="1" source="DzsUAQ3gHwcwVIxKzZvo-24" target="DzsUAQ3gHwcwVIxKzZvo-25">
          <mxGeometry relative="1" as="geometry" />
        </mxCell>
        <mxCell id="DzsUAQ3gHwcwVIxKzZvo-22" value="P2P-SDK" style="ellipse;whiteSpace=wrap;html=1;sketch=1;hachureGap=4;jiggle=2;fillStyle=solid;fontFamily=Architects Daughter;fontSource=https://fonts.googleapis.com/css?family=Architects+Daughter;fontSize=20;" vertex="1" parent="1">
          <mxGeometry x="50" y="530" width="110" height="80" as="geometry" />
        </mxCell>
        <mxCell id="DzsUAQ3gHwcwVIxKzZvo-32" style="edgeStyle=none;rounded=0;sketch=1;hachureGap=4;jiggle=2;orthogonalLoop=1;jettySize=auto;html=1;exitX=1;exitY=0.5;exitDx=0;exitDy=0;entryX=0;entryY=0.5;entryDx=0;entryDy=0;fontFamily=Architects Daughter;fontSource=https%3A%2F%2Ffonts.googleapis.com%2Fcss%3Ffamily%3DArchitects%2BDaughter;fontSize=16;startArrow=none;startFill=0;endArrow=classic;endFill=1;" edge="1" parent="1" source="DzsUAQ3gHwcwVIxKzZvo-24" target="DzsUAQ3gHwcwVIxKzZvo-4">
          <mxGeometry relative="1" as="geometry" />
        </mxCell>
        <mxCell id="DzsUAQ3gHwcwVIxKzZvo-23" value="P2P-SDK" style="ellipse;whiteSpace=wrap;html=1;sketch=1;hachureGap=4;jiggle=2;fillStyle=solid;fontFamily=Architects Daughter;fontSource=https://fonts.googleapis.com/css?family=Architects+Daughter;fontSize=20;" vertex="1" parent="1">
          <mxGeometry x="90" y="570" width="110" height="80" as="geometry" />
        </mxCell>
        <mxCell id="DzsUAQ3gHwcwVIxKzZvo-33" style="edgeStyle=none;rounded=0;sketch=1;hachureGap=4;jiggle=2;orthogonalLoop=1;jettySize=auto;html=1;exitX=1;exitY=1;exitDx=0;exitDy=0;fontFamily=Architects Daughter;fontSource=https%3A%2F%2Ffonts.googleapis.com%2Fcss%3Ffamily%3DArchitects%2BDaughter;fontSize=16;startArrow=classic;startFill=1;endArrow=classic;endFill=1;" edge="1" parent="1" source="DzsUAQ3gHwcwVIxKzZvo-24" target="DzsUAQ3gHwcwVIxKzZvo-9">
          <mxGeometry relative="1" as="geometry" />
        </mxCell>
        <mxCell id="DzsUAQ3gHwcwVIxKzZvo-24" value="P2P-SDK" style="ellipse;whiteSpace=wrap;html=1;sketch=1;hachureGap=4;jiggle=2;fillStyle=solid;fontFamily=Architects Daughter;fontSource=https://fonts.googleapis.com/css?family=Architects+Daughter;fontSize=20;" vertex="1" parent="1">
          <mxGeometry x="110" y="600" width="110" height="80" as="geometry" />
        </mxCell>
        <mxCell id="DzsUAQ3gHwcwVIxKzZvo-25" value="Themis" style="label;whiteSpace=wrap;html=1;image=img/clipart/Gear_128x128.png;sketch=1;hachureGap=4;jiggle=2;fontFamily=Architects Daughter;fontSource=https%3A%2F%2Ffonts.googleapis.com%2Fcss%3Ffamily%3DArchitects%2BDaughter;fontSize=20;align=center;" vertex="1" parent="1">
          <mxGeometry x="180" y="260" width="250" height="70" as="geometry" />
        </mxCell>
        <mxCell id="DzsUAQ3gHwcwVIxKzZvo-27" value="4" style="ellipse;whiteSpace=wrap;html=1;sketch=1;hachureGap=4;jiggle=2;fontFamily=Architects Daughter;fontSource=https://fonts.googleapis.com/css?family=Architects+Daughter;fontSize=20;fillColor=#d5e8d4;strokeColor=#82b366;fillStyle=solid;" vertex="1" parent="1">
          <mxGeometry x="250" y="430" width="30" height="30" as="geometry" />
        </mxCell>
        <mxCell id="DzsUAQ3gHwcwVIxKzZvo-30" style="edgeStyle=none;rounded=0;sketch=1;hachureGap=4;jiggle=2;orthogonalLoop=1;jettySize=auto;html=1;exitX=0;exitY=1;exitDx=0;exitDy=0;entryX=0.75;entryY=0;entryDx=0;entryDy=0;fontFamily=Architects Daughter;fontSource=https%3A%2F%2Ffonts.googleapis.com%2Fcss%3Ffamily%3DArchitects%2BDaughter;fontSize=16;startArrow=none;startFill=0;endArrow=classic;endFill=1;" edge="1" parent="1" source="DzsUAQ3gHwcwVIxKzZvo-29" target="DzsUAQ3gHwcwVIxKzZvo-4">
          <mxGeometry relative="1" as="geometry" />
        </mxCell>
        <mxCell id="DzsUAQ3gHwcwVIxKzZvo-29" value="Hot Point" style="label;whiteSpace=wrap;html=1;image=img/clipart/Gear_128x128.png;sketch=1;hachureGap=4;jiggle=2;fontFamily=Architects Daughter;fontSource=https%3A%2F%2Ffonts.googleapis.com%2Fcss%3Ffamily%3DArchitects%2BDaughter;fontSize=20;align=center;" vertex="1" parent="1">
          <mxGeometry x="820" y="270" width="250" height="70" as="geometry" />
        </mxCell>
        <mxCell id="DzsUAQ3gHwcwVIxKzZvo-31" value="7" style="ellipse;whiteSpace=wrap;html=1;sketch=1;hachureGap=4;jiggle=2;fontFamily=Architects Daughter;fontSource=https://fonts.googleapis.com/css?family=Architects+Daughter;fontSize=20;fillColor=#e1d5e7;strokeColor=#9673a6;fillStyle=solid;" vertex="1" parent="1">
          <mxGeometry x="760" y="340" width="30" height="30" as="geometry" />
        </mxCell>
        <mxCell id="DzsUAQ3gHwcwVIxKzZvo-35" value="5" style="ellipse;whiteSpace=wrap;html=1;sketch=1;hachureGap=4;jiggle=2;fontFamily=Architects Daughter;fontSource=https://fonts.googleapis.com/css?family=Architects+Daughter;fontSize=20;fillColor=#d5e8d4;strokeColor=#82b366;fillStyle=solid;" vertex="1" parent="1">
          <mxGeometry x="384" y="510" width="30" height="30" as="geometry" />
        </mxCell>
        <mxCell id="DzsUAQ3gHwcwVIxKzZvo-38" value="&lt;h1&gt;Heading&lt;/h1&gt;&lt;p&gt;1 向Cluster-Manager报活&lt;/p&gt;&lt;p&gt;2 同步集群信息到CloudCache&lt;/p&gt;&lt;p&gt;3. Scheduler通过CloudCache获得集群全景&lt;/p&gt;" style="text;html=1;strokeColor=none;fillColor=none;spacing=5;spacingTop=-20;whiteSpace=wrap;overflow=hidden;rounded=0;sketch=1;hachureGap=4;jiggle=2;fillStyle=solid;fontFamily=Architects Daughter;fontSource=https%3A%2F%2Ffonts.googleapis.com%2Fcss%3Ffamily%3DArchitects%2BDaughter;fontSize=20;" vertex="1" parent="1">
          <mxGeometry x="160" y="950" width="630" height="290" as="geometry" />
        </mxCell>
        <mxCell id="DzsUAQ3gHwcwVIxKzZvo-40" value="3" style="ellipse;whiteSpace=wrap;html=1;sketch=1;hachureGap=4;jiggle=2;fontFamily=Architects Daughter;fontSource=https://fonts.googleapis.com/css?family=Architects+Daughter;fontSize=20;fillColor=#ffe6cc;strokeColor=#d79b00;fillStyle=solid;" vertex="1" parent="1">
          <mxGeometry x="790" y="510" width="30" height="30" as="geometry" />
        </mxCell>
        <mxCell id="DzsUAQ3gHwcwVIxKzZvo-41" value="6" style="ellipse;whiteSpace=wrap;html=1;sketch=1;hachureGap=4;jiggle=2;fontFamily=Architects Daughter;fontSource=https://fonts.googleapis.com/css?family=Architects+Daughter;fontSize=20;fillColor=#d5e8d4;strokeColor=#82b366;fillStyle=solid;" vertex="1" parent="1">
          <mxGeometry x="280" y="730" width="30" height="30" as="geometry" />
        </mxCell>
      </root>
    </mxGraphModel>
  </diagram>
</mxfile>
